<svg width="808" height="773" viewBox="0 0 808 773" fill="none" xmlns="http://www.w3.org/2000/svg">
<g filter="url(#filter0_d_91201_2)">
<g clip-path="url(#clip0_91201_2)">
<rect width="800" height="800" transform="translate(4)" fill="#F5F7FB"/>
<path d="M248.922 319.42H250.615C250.564 317.557 248.916 316.205 246.553 316.205C244.217 316.205 242.428 317.54 242.428 319.545C242.428 321.165 243.587 322.114 245.456 322.619L246.831 322.994C248.075 323.324 249.036 323.733 249.036 324.767C249.036 325.903 247.95 326.653 246.456 326.653C245.104 326.653 243.979 326.051 243.876 324.784H242.115C242.229 326.892 243.859 328.193 246.467 328.193C249.2 328.193 250.774 326.756 250.774 324.784C250.774 322.688 248.905 321.875 247.428 321.511L246.291 321.216C245.382 320.983 244.172 320.557 244.178 319.443C244.178 318.455 245.081 317.722 246.513 317.722C247.848 317.722 248.797 318.347 248.922 319.42ZM256.81 319.273H255.02V317.182H253.321V319.273H252.043V320.636H253.321V325.79C253.315 327.375 254.526 328.142 255.866 328.114C256.406 328.108 256.77 328.006 256.969 327.932L256.662 326.528C256.548 326.551 256.338 326.602 256.065 326.602C255.514 326.602 255.02 326.42 255.02 325.438V320.636H256.81V319.273ZM261.229 328.193C262.672 328.193 263.484 327.46 263.808 326.807H263.876V328H265.536V322.205C265.536 319.665 263.536 319.159 262.149 319.159C260.57 319.159 259.115 319.795 258.547 321.386L260.143 321.75C260.393 321.131 261.03 320.534 262.172 320.534C263.268 320.534 263.831 321.108 263.831 322.097V322.136C263.831 322.756 263.195 322.744 261.626 322.926C259.973 323.119 258.28 323.551 258.28 325.534C258.28 327.25 259.57 328.193 261.229 328.193ZM261.598 326.83C260.638 326.83 259.945 326.398 259.945 325.557C259.945 324.648 260.751 324.324 261.734 324.193C262.286 324.119 263.592 323.972 263.837 323.727V324.852C263.837 325.886 263.013 326.83 261.598 326.83ZM267.798 328H269.497V322.67C269.497 321.528 270.378 320.705 271.582 320.705C271.935 320.705 272.332 320.767 272.469 320.807V319.182C272.298 319.159 271.963 319.142 271.747 319.142C270.724 319.142 269.849 319.722 269.531 320.659H269.44V319.273H267.798V328ZM278.528 319.273H276.739V317.182H275.04V319.273H273.761V320.636H275.04V325.79C275.034 327.375 276.244 328.142 277.585 328.114C278.125 328.108 278.489 328.006 278.688 327.932L278.381 326.528C278.267 326.551 278.057 326.602 277.784 326.602C277.233 326.602 276.739 326.42 276.739 325.438V320.636H278.528V319.273ZM292.233 331.273V319.273H290.574V320.688H290.432C290.131 320.148 289.545 319.159 287.926 319.159C285.818 319.159 284.261 320.824 284.261 323.653C284.261 326.477 285.795 328.17 287.909 328.17C289.5 328.17 290.125 327.199 290.432 326.642H290.534V331.273H292.233ZM290.568 323.636C290.568 325.472 289.75 326.722 288.29 326.722C286.773 326.722 285.977 325.386 285.977 323.636C285.977 321.903 286.75 320.602 288.29 320.602C289.773 320.602 290.568 321.812 290.568 323.636ZM300.045 324.381C300.051 325.864 298.949 326.568 297.994 326.568C296.943 326.568 296.216 325.807 296.216 324.619V319.273H294.517V324.824C294.517 326.989 295.705 328.114 297.381 328.114C298.693 328.114 299.585 327.42 299.989 326.489H300.08V328H301.75V319.273H300.045V324.381ZM304.033 328H305.732V319.273H304.033V328ZM304.891 317.926C305.476 317.926 305.964 317.472 305.964 316.915C305.964 316.358 305.476 315.898 304.891 315.898C304.3 315.898 303.817 316.358 303.817 316.915C303.817 317.472 304.3 317.926 304.891 317.926ZM307.835 328H314.841V326.523H310.136V326.443L314.682 320.511V319.273H307.989V320.75H312.562V320.83L307.835 326.835V328Z" fill="#F5F7FB"/>
<path fill-rule="evenodd" clip-rule="evenodd" d="M-1.55191 436.906C39.9614 433.775 86.2425 422.279 116.306 451.109C149.581 483.02 159.282 534.703 146.701 579.081C134.767 621.18 97.7448 652.092 55.8208 664.476C20.5281 674.902 -11.4332 650.605 -45.1007 635.738C-81.3375 619.737 -129.641 614.993 -141.741 577.239C-154.358 537.868 -128.269 496.588 -99.0642 467.353C-73.7328 441.995 -37.2727 439.6 -1.55191 436.906Z" fill="#DEEBF8"/>
<path fill-rule="evenodd" clip-rule="evenodd" d="M459.409 81.3947C431.121 50.8508 393.318 21.7816 397.173 -19.6933C401.439 -65.599 435.854 -105.359 478.419 -123.133C518.797 -139.994 566.035 -130.256 601.822 -105.149C631.947 -84.0141 632.823 -43.8756 642.141 -8.27104C652.17 30.0508 678.521 70.8106 656.501 103.779C633.538 138.159 584.991 143.432 543.931 138.768C508.318 134.723 483.751 107.677 459.409 81.3947Z" fill="#FFFAD1"/>
</g>
</g>
<defs>
<filter id="filter0_d_91201_2" x="0" y="0" width="808" height="808" filterUnits="userSpaceOnUse" color-interpolation-filters="sRGB">
<feFlood flood-opacity="0" result="BackgroundImageFix"/>
<feColorMatrix in="SourceAlpha" type="matrix" values="0 0 0 0 0 0 0 0 0 0 0 0 0 0 0 0 0 0 127 0" result="hardAlpha"/>
<feOffset dy="4"/>
<feGaussianBlur stdDeviation="2"/>
<feComposite in2="hardAlpha" operator="out"/>
<feColorMatrix type="matrix" values="0 0 0 0 0 0 0 0 0 0 0 0 0 0 0 0 0 0 0.25 0"/>
<feBlend mode="normal" in2="BackgroundImageFix" result="effect1_dropShadow_91201_2"/>
<feBlend mode="normal" in="SourceGraphic" in2="effect1_dropShadow_91201_2" result="shape"/>
</filter>
<clipPath id="clip0_91201_2">
<rect width="800" height="800" fill="white" transform="translate(4)"/>
</clipPath>
</defs>
</svg>
